PathFileType        4      (X/Y/Z)      C:\Users\pc\Desktop\IMUTRC\Sujet_06\Sujet_06_velo_60.trc         
DataRate	CameraRate	NumFrames	NumMarkers	Units	OrigDataRate	OrigDataStartFrame	OrigNumFrames
60.0	60.0	4	64	mm	60.0	352	936
Frame#	Time	pHipOrigin			pRightASI			pLeftASI			pRightCSI			pLeftCSI			pRightIschialTub			pLeftIschialTub			pSacrum			pL5SpinalProcess			pL3SpinalProcess			pT12SpinalProcess			pIJ			pT4SpinalProcess			pT8SpinalProcess			pPX			pC7SpinalProcess			pTopOfHead			pRightAuricularis			pLeftAuricularis			pBackOfHead			pRightAcromion			pLeftAcromion			pRightArmLatEpicondyle			pRightArmMedEpicondyle			pLeftArmLatEpicondyle			pLeftArmMedEpicondyle			pRightUlnarStyloid			pRightRadialStyloid			pRightOlecranon			pLeftUlnarStyloid			pLeftRadialStyloid			pLeftOlecranon			pRightTopOfHand			pRightPinky			pRightBallHand			pLeftTopOfHand			pLeftPinky			pLeftBallHand			pRightGreaterTrochanter			pRightKneeLatEpicondyle			pRightKneeMedEpicondyle			pRightPatella			pLeftGreaterTrochanter			pLeftKneeLatEpicondyle			pLeftKneeMedEpicondyle			pLeftPatella			pRightTibialTub			pRightLatMalleolus			pRightMedMalleolus			pLeftTibialTub			pLeftLatMalleolus			pLeftMedMalleolus			pRightHeelFoot			pRightFirstMetatarsal			pRightFifthMetatarsal			pRightPivotFoot			pRightHeelCenter			pRightToe			pLeftHeelFoot			pLeftFirstMetatarsal			pLeftFifthMetatarsal			pLeftPivotFoot			pLeftHeelCenter			pLeftToe			
		X1	Y1	Z1	X2	Y2	Z2	X3	Y3	Z3	X4	Y4	Z4	X5	Y5	Z5	X6	Y6	Z6	X7	Y7	Z7	X8	Y8	Z8	X9	Y9	Z9	X10	Y10	Z10	X11	Y11	Z11	X12	Y12	Z12	X13	Y13	Z13	X14	Y14	Z14	X15	Y15	Z15	X16	Y16	Z16	X17	Y17	Z17	X18	Y18	Z18	X19	Y19	Z19	X20	Y20	Z20	X21	Y21	Z21	X22	Y22	Z22	X23	Y23	Z23	X24	Y24	Z24	X25	Y25	Z25	X26	Y26	Z26	X27	Y27	Z27	X28	Y28	Z28	X29	Y29	Z29	X30	Y30	Z30	X31	Y31	Z31	X32	Y32	Z32	X33	Y33	Z33	X34	Y34	Z34	X35	Y35	Z35	X36	Y36	Z36	X37	Y37	Z37	X38	Y38	Z38	X39	Y39	Z39	X40	Y40	Z40	X41	Y41	Z41	X42	Y42	Z42	X43	Y43	Z43	X44	Y44	Z44	X45	Y45	Z45	X46	Y46	Z46	X47	Y47	Z47	X48	Y48	Z48	X49	Y49	Z49	X50	Y50	Z50	X51	Y51	Z51	X52	Y52	Z52	X53	Y53	Z53	X54	Y54	Z54	X55	Y55	Z55	X56	Y56	Z56	X57	Y57	Z57	X58	Y58	Z58	X59	Y59	Z59	X60	Y60	Z60	X61	Y61	Z61	X62	Y62	Z62	X63	Y63	Z63	X64	Y64	Z64	
352	5.85	0.0	1249.97291	7.653876616262013E-14	39.804690000000015	1326.76425	129.1597600000001	78.96357999999998	1341.79375	-97.51561999999993	5.870900000000013	1387.41063	108.96387000000009	38.86534999999999	1400.09177	-82.19256999999992	-57.24125999999999	1199.01351	36.16473000000008	-40.74403000000001	1205.35408	-59.413489999999925	-57.06513	1270.40363	-8.512799999999915	-25.30357	1360.87417	1.9374000000000864	21.19394	1470.36642	13.796610000000088	66.16502	1569.52589	23.601010000000088	310.86405	1652.65781	72.68172000000006	181.35204	1730.03624	44.971080000000086	121.64501	1662.05124	34.10992000000009	233.13336	1556.43379	58.591560000000065	224.97281	1776.06408	53.19034000000008	504.77982	1805.00761	56.88900000000005	404.97455	1791.62196	134.26744000000005	399.22107	1782.46336	-10.03923999999994	392.11728	1842.93361	59.002530000000064	196.96863000000002	1743.18705	232.2527300000001	258.8479	1735.08522	-125.51979999999993	357.53769	1492.79325	227.49730000000002	345.7959	1485.57205	166.02900000000005	430.8065	1498.95769	-129.92296999999996	401.45201	1473.41929	-80.31388999999996	516.16936	1305.39419	271.94	548.92897	1329.46487	239.41522000000003	333.23217	1479.93598	214.69874000000004	631.23896	1352.94846	-154.87429	644.44848	1367.39087	-106.67422	407.61645	1481.87338	-130.86231999999998	699.81105	1322.4785	235.07076	631.29767	1291.94983	267.41941	563.13654	1299.22974	256.02986	798.26601	1354.5336	-80.66614000000001	738.26543	1339.97378	-134.15002	668.754	1343.08535	-133.26939	-4.461879999999982	1213.63205	145.89182000000008	254.03376000000003	935.52761	141.78219000000004	269.82648	943.45332	70.15723000000003	289.96366	969.16785	112.89737000000002	50.72455999999998	1245.62844	-142.2518599999999	371.62785	1049.77528	-89.35506999999997	362.41054	1043.25859	-16.43850999999998	384.83737	1083.00457	-44.91236999999999	279.27862	890.49782	111.89932000000003	-10.802449999999986	655.54448	118.00505000000004	-1.8199799999999926	650.31938	59.82445000000004	411.66737	1015.48924	-49.84391999999998	317.38075	659.94765	-113.7193	313.68208	655.30964	-54.89289999999999	-89.47248999999998	618.20557	74.91266000000006	27.76935000000001	507.24559	79.60938000000003	10.80245000000002	518.04805	153.28915000000003	34.462170000000015	497.85216	121.05792000000002	-62.231519999999996	594.36972	84.65835000000006	87.18284000000001	446.4818	140.72543000000002	260.37433	585.03499	-87.82863999999998	411.43254	550.27928	-42.50530000000001	415.65958	550.80766	-118.76827000000003	434.56387	545.64127	-78.43520000000002	297.24357	578.63571	-85.83253000000002	508.71332	528.67437	-74.44299000000002	
353	5.867	0.0	1249.97291	7.653876616262013E-14	39.335020000000014	1326.88167	129.27718000000007	79.43324999999999	1341.67634	-97.22206999999993	5.518640000000014	1387.52805	108.84645000000009	39.33501999999999	1399.97435	-82.13385999999991	-57.417379999999994	1199.13093	35.92990000000008	-40.50920000000001	1205.35408	-59.53090999999992	-57.00642	1270.40363	-8.747639999999915	-25.24486	1360.87417	1.7612700000000863	21.19394	1470.36642	13.85532000000009	65.98889	1569.52589	23.894560000000087	310.39438	1653.06877	73.62106000000006	180.82366	1730.21237	45.793000000000085	121.29275	1662.16866	34.638300000000086	232.89853	1556.72733	59.17865000000006	224.26831	1776.35763	54.24710000000008	504.07531	1805.5947	58.415440000000046	404.15262	1791.97422	135.67645000000005	398.63398	1783.10916	-8.688929999999939	391.35407	1843.40328	60.411540000000066	196.14670000000004	1743.06964	233.1333600000001	258.61306	1735.78972	-124.52174999999993	356.89189	1492.79325	227.96697000000003	345.20881	1485.68947	166.43996000000007	430.74779	1499.72091	-129.57071999999997	401.21717	1473.88896	-80.25517999999995	515.58227	1305.45289	272.17483	548.34188	1329.52358	239.70877000000002	332.58638	1479.99469	215.16841000000005	630.76929	1353.12459	-154.63946	643.97881	1367.44958	-106.38067	407.44033	1482.57789	-130.62747999999996	699.16525	1322.53721	235.12947	630.76929	1291.94983	267.59553	562.54945	1299.28845	256.2647	797.73763	1354.24006	-80.31389000000001	737.73705	1339.85636	-133.85648	668.28433	1343.08535	-132.97584	-3.757369999999982	1214.39527	146.0092300000001	263.07494	944.33395	143.07379000000003	278.5154	952.31838	71.33141000000003	297.94808	978.85483	113.89542000000002	50.31359999999999	1243.3975	-142.31056999999993	362.41054	1033.68902	-89.53119999999998	353.25194	1028.11167	-16.55592999999998	377.26391	1066.62476	-45.38203999999999	286.44112	899.12804	112.83866000000003	-10.039239999999985	672.33525	119.47278000000004	-1.4090199999999924	667.05144	61.23347000000004	403.38941	1000.69458	-49.961339999999986	316.03044	643.33301	-113.7193	312.33178	638.63629	-54.89289999999999	-89.70731999999998	636.6989	76.67393000000006	25.186150000000012	523.27314	81.01839000000002	8.80635000000002	534.48656	154.75687000000002	31.878980000000013	513.76229	122.40822000000003	-62.936029999999995	612.27596	86.36091000000006	83.54288000000001	461.27646	141.89961000000002	259.84595	567.77455	-87.71122	411.1977	534.83881	-42.03563000000001	415.54217	535.19107	-118.23989000000003	434.44646	530.37693	-77.90682000000002	296.83261	561.78624	-85.65640000000002	508.83074	514.29067	-73.73848000000002	
354	5.883	0.0	1249.97291	7.653876616262013E-14	38.806640000000016	1326.94038	129.39459000000008	79.96162999999999	1341.50021	-96.98723999999993	5.166390000000013	1387.64547	108.72903000000008	39.86339999999999	1399.85694	-82.13385999999991	-57.65221999999999	1199.18964	35.75377000000008	-40.27436000000001	1205.35408	-59.707029999999925	-56.94771	1270.46234	-9.041179999999915	-25.18615	1360.87417	1.5851400000000864	21.13523	1470.36642	13.85532000000009	65.75406	1569.5846	24.12939000000009	309.92471	1653.53844	74.56041000000006	180.23657	1730.44721	46.614930000000086	120.88179	1662.28608	35.166680000000085	232.66369	1557.02088	59.765740000000065	223.62251	1776.65117	55.186440000000076	503.3708	1806.2405	60.00058000000005	403.27199	1792.38518	137.02676000000005	397.98818	1783.81367	-7.338619999999939	390.59085	1843.93167	61.87927000000006	195.32478000000003	1742.95222	233.95529000000008	258.37822	1736.61165	-123.58239999999994	356.18739	1492.73454	228.43664000000004	344.5043	1485.74817	166.85092000000006	430.68908	1500.54284	-129.21846999999997	400.92363	1474.35863	-80.19646999999996	514.99518	1305.5116	272.40967	547.69608	1329.58229	239.88490000000002	331.88187	1479.99469	215.57938000000004	630.29962	1353.242	-154.40462	643.50914	1367.567	-106.14584	407.32291	1483.2824	-130.39264999999997	698.51945	1322.59592	235.18818	630.1822	1292.00854	267.71295	561.90365	1299.34716	256.44083	797.26796	1354.00522	-80.02034000000002	737.20867	1339.79765	-133.56293	667.75595	1343.20277	-132.74101	-3.052869999999982	1215.2759	146.1266500000001	272.35096	953.90352	144.24797000000004	287.43917	961.94665	72.44688000000002	306.04992	989.36374	114.83477000000002	49.72650999999998	1241.16656	-142.4279899999999	351.96034	1017.42664	-90.11828999999999	343.03657	1012.72992	-16.96689999999998	368.63369	1049.8927	-46.26267999999998	294.07328	908.63889	113.83671000000001	-7.808289999999985	689.12602	120.99921000000005	0.41096000000000765	683.7835	62.759900000000044	393.99597	985.43024	-50.43100999999999	313.1537	626.54224	-113.95413	309.45504	621.84552	-55.12773	-88.29830999999999	655.13352	78.55262000000006	24.42294000000001	539.53553	82.36870000000003	8.51280000000002	551.04249	156.16589000000002	31.057050000000014	529.84855	123.69982000000003	-61.937969999999986	630.24091	88.06347000000005	81.78161000000001	476.42338	142.95637000000002	257.61501	550.51411	-87.76993	409.14289	519.0461	-41.62467000000002	413.66348	519.16352	-117.88763000000003	432.50906	514.64292	-77.49585000000003	294.60167	544.81934	-85.59769000000001	506.95205	499.20246	-73.15139000000003	
355	5.9	0.0	1249.97291	7.653876616262013E-14	38.27826000000002	1327.11651	129.4533000000001	80.43129999999998	1341.32408	-96.75239999999992	4.755430000000013	1387.76289	108.61161000000008	40.33306999999999	1399.73952	-82.13385999999991	-57.82834999999999	1199.30706	35.57764000000008	-40.03952000000001	1205.29537	-59.82444999999992	-56.889	1270.52105	-9.334729999999915	-25.12744	1360.87417	1.4090200000000863	21.07652	1470.36642	13.85532000000009	65.57793	1569.64331	24.30552000000009	309.45504	1653.9494	75.32362000000006	179.64948	1730.68204	47.26073000000009	120.47083	1662.4035	35.57764000000009	232.42885	1557.31442	60.235410000000066	222.918	1776.94472	56.067080000000075	502.60758	1806.8863	61.40959000000005	402.45006	1792.73743	138.20094000000006	397.40109	1784.45947	-6.1644399999999395	389.82763	1844.46005	63.17086000000006	194.50285000000002	1742.8348	234.65980000000008	258.2021	1737.37487	-122.70176999999993	355.48288	1492.73454	228.78890000000004	343.91721	1485.80688	167.20318000000006	430.68908	1501.36476	-128.92491999999996	400.7475	1474.88701	-80.13775999999996	514.52551	1305.57031	272.52709	547.1677	1329.6997	240.00231000000002	331.29478	1479.99469	215.99034000000006	629.88865	1353.47684	-154.22849	643.15688	1367.68441	-105.96971	407.20549	1483.9869	-130.27522999999997	697.99107	1322.71333	235.12947	629.65382	1292.12596	267.71295	561.43398	1299.40587	256.49954	796.85699	1353.94651	-79.84421000000002	736.79771	1339.79765	-133.3868	667.34498	1343.32019	-132.56488	-2.3483599999999822	1216.15653	146.1853600000001	281.7444	964.2363	145.24602000000002	296.36293	972.39685	73.32752000000002	314.15176	1000.63587	115.53927000000002	48.963289999999986	1239.05304	-142.54540999999992	340.68821	1001.57521	-91.05762999999999	332.1167	997.70042	-17.90623999999998	359.24025	1033.5129	-47.55426999999998	301.999	918.97167	114.54122000000001	-4.168339999999985	705.3884	122.40822000000004	3.816080000000008	700.04589	64.11021000000004	383.83932	970.63558	-51.37035999999999	308.86795	610.33856	-114.30639	305.2867	605.70055	-55.47999	-85.30414999999999	672.74621	80.13776000000006	25.479700000000012	555.32825	83.66030000000003	9.98053000000002	567.07004	157.51620000000003	32.113810000000015	545.52385	124.99142000000003	-59.41348999999999	647.38393	89.64861000000006	81.95774000000002	491.21804	144.13055000000003	253.68151	534.0756	-87.82864	405.26809	503.48822	-41.33112000000002	409.9061	503.19467	-117.59409000000002	428.69298	498.96763	-77.14360000000003	290.66816	528.55695	-85.59769000000001	503.19467	483.87942	-72.56430000000003	
